<svg width="14" height="12" viewBox="0 0 14 12" fill="none" xmlns="http://www.w3.org/2000/svg">
<path d="M1.39961 0.400024C0.957782 0.400024 0.599609 0.758197 0.599609 1.20002C0.599609 1.64185 0.957782 2.00002 1.39961 2.00002H10.1996C10.6414 2.00002 10.9996 1.64185 10.9996 1.20002C10.9996 0.758197 10.6414 0.400024 10.1996 0.400024H1.39961Z" fill="#374151"/>
<path d="M1.39961 3.60002C0.957782 3.60002 0.599609 3.9582 0.599609 4.40002C0.599609 4.84185 0.957782 5.20002 1.39961 5.20002H5.39961C5.84144 5.20002 6.19961 4.84185 6.19961 4.40002C6.19961 3.9582 5.84144 3.60002 5.39961 3.60002H1.39961Z" fill="#374151"/>
<path d="M1.39961 6.80002C0.957782 6.80002 0.599609 7.1582 0.599609 7.60003C0.599609 8.04185 0.957782 8.40003 1.39961 8.40003H4.59961C5.04144 8.40003 5.39961 8.04185 5.39961 7.60003C5.39961 7.1582 5.04144 6.80002 4.59961 6.80002H1.39961Z" fill="#374151"/>
<path d="M9.39961 10.8C9.39961 11.2419 9.75778 11.6 10.1996 11.6C10.6414 11.6 10.9996 11.2419 10.9996 10.8L10.9996 6.3314L12.0339 7.36571C12.3463 7.67813 12.8529 7.67813 13.1653 7.36571C13.4777 7.05329 13.4777 6.54676 13.1653 6.23434L10.7653 3.83434C10.6153 3.68431 10.4118 3.60002 10.1996 3.60002C9.98744 3.60002 9.78395 3.68431 9.63393 3.83434L7.23392 6.23434C6.9215 6.54676 6.9215 7.05329 7.23392 7.36571C7.54634 7.67813 8.05288 7.67813 8.36529 7.36571L9.39961 6.3314L9.39961 10.8Z" fill="#374151"/>
</svg>
