<svg width="20" height="20" viewBox="0 0 20 20" fill="none" xmlns="http://www.w3.org/2000/svg">
<path d="M4.16602 12.5C3.38945 12.5 3.00116 12.5 2.69488 12.3732C2.2865 12.204 1.96204 11.8795 1.79288 11.4712C1.66602 11.1649 1.66602 10.7766 1.66602 10V4.33335C1.66602 3.39993 1.66602 2.93322 1.84767 2.5767C2.00746 2.2631 2.26243 2.00813 2.57603 1.84834C2.93255 1.66669 3.39926 1.66669 4.33268 1.66669H9.99935C10.7759 1.66669 11.1642 1.66669 11.4705 1.79355C11.8789 1.96271 12.2033 2.28717 12.3725 2.69555C12.4993 3.00183 12.4993 3.39012 12.4993 4.16669M10.166 18.3334H15.666C16.5994 18.3334 17.0661 18.3334 17.4227 18.1517C17.7363 17.9919 17.9912 17.7369 18.151 17.4233C18.3327 17.0668 18.3327 16.6001 18.3327 15.6667V10.1667C18.3327 9.23327 18.3327 8.76656 18.151 8.41004C17.9912 8.09643 17.7363 7.84147 17.4227 7.68168C17.0661 7.50002 16.5994 7.50002 15.666 7.50002H10.166C9.23259 7.50002 8.76588 7.50002 8.40937 7.68168C8.09576 7.84147 7.84079 8.09643 7.68101 8.41004C7.49935 8.76656 7.49935 9.23327 7.49935 10.1667V15.6667C7.49935 16.6001 7.49935 17.0668 7.68101 17.4233C7.84079 17.7369 8.09576 17.9919 8.40937 18.1517C8.76588 18.3334 9.2326 18.3334 10.166 18.3334Z" stroke="#344054" stroke-width="1.66667" stroke-linecap="round" strokeLinejoin="round"/>
</svg>
