<svg width="60" height="60" viewBox="0 0 60 60" fill="none" xmlns="http://www.w3.org/2000/svg">
<rect width="60" height="60" rx="30" fill="#ECFDF3"/>
<path d="M28.1239 31.875L41.2489 18.75M28.2834 32.2851L31.5685 40.7326C31.8579 41.4767 32.0026 41.8488 32.2111 41.9575C32.3919 42.0516 32.6072 42.0518 32.7881 41.9578C32.9967 41.8494 33.1418 41.4775 33.4321 40.7337L41.67 19.624C41.9321 18.9525 42.0631 18.6168 41.9914 18.4022C41.9292 18.2159 41.783 18.0697 41.5967 18.0075C41.3821 17.9358 41.0464 18.0668 40.3749 18.3288L19.2652 26.5668C18.5214 26.8571 18.1495 27.0022 18.0411 27.2108C17.9471 27.3917 17.9473 27.607 18.0414 27.7877C18.1501 27.9962 18.5221 28.141 19.2663 28.4304L27.7138 31.7155C27.8649 31.7742 27.9404 31.8036 28.004 31.849C28.0604 31.8892 28.1097 31.9385 28.1499 31.9949C28.1953 32.0585 28.2246 32.134 28.2834 32.2851Z" stroke="#12B76A" stroke-width="2.5" stroke-linecap="round" stroke-linejoin="round"/>
</svg>
