<svg width="24" height="25" viewBox="0 0 24 25" fill="none" xmlns="http://www.w3.org/2000/svg">
<g clip-path="url(#clip0_201_58293)">
<path d="M23.7663 12.3046C23.7663 11.4889 23.7001 10.6688 23.559 9.86627H12.2402V14.4873H18.722C18.453 15.9776 17.5888 17.296 16.3233 18.1338V21.1321H20.1903C22.4611 19.0421 23.7663 15.9556 23.7663 12.3046Z" fill="#4285F4"/>
<path d="M12.2401 24.029C15.4766 24.029 18.2059 22.9664 20.1945 21.1321L16.3276 18.1337C15.2517 18.8657 13.8627 19.2802 12.2445 19.2802C9.11388 19.2802 6.45946 17.1681 5.50705 14.3285H1.5166V17.4194C3.55371 21.4716 7.7029 24.029 12.2401 24.029Z" fill="#34A853"/>
<path d="M5.50277 14.3285C5.00011 12.8381 5.00011 11.2243 5.50277 9.73395V6.64301H1.51674C-0.185266 10.0338 -0.185266 14.0286 1.51674 17.4194L5.50277 14.3285Z" fill="#FBBC04"/>
<path d="M12.2401 4.77786C13.9509 4.7514 15.6044 5.39516 16.8434 6.57687L20.2695 3.15081C18.1001 1.1137 15.2208 -0.00626776 12.2401 0.0290069C7.7029 0.0290069 3.55371 2.58642 1.5166 6.64301L5.50264 9.73395C6.45064 6.88993 9.10947 4.77786 12.2401 4.77786Z" fill="#EA4335"/>
</g>
<defs>
<clipPath id="clip0_201_58293">
<rect width="24" height="24" fill="white" transform="translate(0 0.0281982)"/>
</clipPath>
</defs>
</svg>
