<svg width="60" height="60" viewBox="0 0 60 60" fill="none" xmlns="http://www.w3.org/2000/svg">
<rect width="60" height="60" rx="20" fill="#EFF4FF"/>
<path d="M42.5 41.25V38.75C42.5 36.4202 40.9065 34.4626 38.75 33.9075M34.375 19.1134C36.2074 19.8552 37.5 21.6516 37.5 23.75C37.5 25.8484 36.2074 27.6448 34.375 28.3866M36.25 41.25C36.25 38.9203 36.25 37.7554 35.8694 36.8366C35.3619 35.6114 34.3886 34.6381 33.1634 34.1306C32.2446 33.75 31.0797 33.75 28.75 33.75H25C22.6703 33.75 21.5054 33.75 20.5866 34.1306C19.3614 34.6381 18.3881 35.6114 17.8806 36.8366C17.5 37.7554 17.5 38.9203 17.5 41.25M31.875 23.75C31.875 26.5114 29.6364 28.75 26.875 28.75C24.1136 28.75 21.875 26.5114 21.875 23.75C21.875 20.9886 24.1136 18.75 26.875 18.75C29.6364 18.75 31.875 20.9886 31.875 23.75Z" stroke="#155EEF" stroke-width="2.5" stroke-linecap="round" strokeLinejoin="round"/>
</svg>
