<svg width="112" height="32" fill="none" xmlns="http://www.w3.org/2000/svg"><rect width="32" height="32" rx="8" fill="#F9FAFB"/><path fill-rule="evenodd" clip-rule="evenodd" d="M16 2.039C8.29 2.039 2.039 8.289 2.039 16c0 7.71 6.25 13.961 13.961 13.961 7.71 0 13.961-6.25 13.961-13.961 0-7.71-6.25-13.961-13.961-13.961ZM1.961 16C1.961 8.247 8.247 1.961 16 1.961S30.039 8.247 30.039 16 23.753 30.039 16 30.039 1.961 23.753 1.961 16Z" fill="#D1E0FF"/><path fill-rule="evenodd" clip-rule="evenodd" d="M16 12.078a3.922 3.922 0 1 0 0 7.845 3.922 3.922 0 0 0 0-7.845ZM12 16a4 4 0 1 1 8 0 4 4 0 0 1-8 0Z" fill="#D1E0FF"/><path fill-rule="evenodd" clip-rule="evenodd" d="M16 13.32a2.68 2.68 0 1 0 0 5.36 2.68 2.68 0 0 0 0-5.36ZM13.243 16a2.757 2.757 0 1 1 5.514 0 2.757 2.757 0 0 1-5.514 0Z" fill="#D1E0FF"/><path d="M15.961 0h.078v32h-.078V0Z" fill="#D1E0FF"/><path d="M32 15.96v.079H0v-.078h32Z" fill="#D1E0FF"/><path d="M26.602 0h.078v32h-.078V0ZM10.64 0h.078v32h-.077V0ZM21.282 0h.077v32h-.078V0ZM5.32 0h.078v32H5.32V0Z" fill="#D1E0FF"/><path d="M32 26.602v.077H0v-.077h32ZM32 10.64v.078H0v-.077h32ZM32 21.281v.078H0v-.078h32ZM32 5.32v.078H0V5.32h32Z" fill="#D1E0FF"/><path d="m17.06 2 3.851 6.331M17.06 2 29 10.007M17.06 2 6.466 6.283M20.91 8.33 29 10.007M20.911 8.33 7.815 13.359M20.91 8.33l-1.926 13.593M29 10.007l-2.119 13.78M6.467 6.282l1.348 7.076M6.467 6.283 3 20.063m4.815-6.704 11.17 8.565M7.815 13.36 3 20.062m15.985 1.862L14.17 29m4.815-7.076 7.896 1.862M3 20.062 14.17 29m0 0 12.711-5.214" stroke="#155EEF"/><path d="M52.087 14.635c0 1.652-.31 3.067-.929 4.244-.613 1.173-1.452 2.071-2.514 2.695-1.058.624-2.258.936-3.6.936-1.343 0-2.545-.312-3.608-.936-1.058-.629-1.897-1.53-2.515-2.702-.614-1.178-.921-2.59-.921-4.237 0-1.651.307-3.063.92-4.236.62-1.178 1.458-2.078 2.516-2.702 1.063-.624 2.265-.936 3.607-.936 1.343 0 2.543.312 3.6.936 1.063.624 1.902 1.524 2.515 2.702.62 1.173.929 2.585.929 4.236Zm-2.792 0c0-1.162-.182-2.143-.547-2.941-.359-.804-.858-1.41-1.497-1.819-.638-.414-1.374-.621-2.208-.621-.833 0-1.569.207-2.208.621-.638.41-1.14 1.015-1.504 1.819-.36.798-.54 1.779-.54 2.941 0 1.163.18 2.146.54 2.95.364.798.866 1.404 1.504 1.818.639.41 1.375.614 2.208.614.834 0 1.57-.204 2.208-.614.64-.414 1.138-1.02 1.497-1.819.365-.803.547-1.786.547-2.949ZM54.592 26.611V10.803h2.665v1.901h.157c.14-.28.337-.576.591-.89.255-.32.6-.592 1.033-.816.434-.23.988-.345 1.662-.345.888 0 1.69.227 2.403.682.718.449 1.287 1.115 1.706 1.998.424.878.636 1.956.636 3.234 0 1.262-.207 2.335-.62 3.218-.415.883-.979 1.557-1.692 2.021-.714.464-1.522.696-2.425.696-.66 0-1.206-.11-1.64-.33a3.335 3.335 0 0 1-1.048-.793 5.138 5.138 0 0 1-.606-.89h-.112v6.122h-2.71Zm2.657-10.06c0 .744.105 1.395.315 1.954.214.559.521.996.92 1.31.405.31.894.464 1.468.464.598 0 1.1-.16 1.504-.479.404-.324.708-.766.913-1.325.21-.564.315-1.205.315-1.923 0-.714-.103-1.348-.307-1.902-.205-.553-.51-.988-.914-1.302-.404-.314-.908-.472-1.511-.472-.58 0-1.07.153-1.475.457-.404.304-.711.731-.92 1.28-.205.549-.308 1.195-.308 1.939Z" fill="#273048"/><path d="M82.97 15.564V22.3h-2.71V10.803h2.59v1.954h.135a3.286 3.286 0 0 1 1.264-1.535c.584-.379 1.305-.569 2.164-.569.793 0 1.484.17 2.073.51.594.339 1.053.83 1.377 1.474.33.644.492 1.425.487 2.343v7.32h-2.71v-6.901c0-.769-.2-1.37-.599-1.804-.394-.434-.94-.651-1.639-.651-.474 0-.895.105-1.265.314a2.18 2.18 0 0 0-.86.89c-.205.39-.307.862-.307 1.416Z" fill="#155EEF"/><path fill-rule="evenodd" clip-rule="evenodd" d="M69.869 21.806c.838.479 1.834.719 2.987.719.893 0 1.686-.135 2.38-.405.693-.274 1.262-.658 1.706-1.152.45-.5.754-1.083.914-1.752l-2.53-.284c-.12.324-.297.596-.532.816-.234.22-.511.386-.83.501-.32.11-.677.165-1.071.165-.589 0-1.103-.125-1.542-.374a2.617 2.617 0 0 1-1.025-1.093c-.237-.463-.359-1.014-.367-1.654h8.009v-.831c0-1.008-.14-1.877-.42-2.605-.279-.733-.663-1.337-1.152-1.811a4.535 4.535 0 0 0-1.677-1.048 5.805 5.805 0 0 0-2.006-.345c-1.097 0-2.053.252-2.866.756-.814.5-1.447 1.198-1.902 2.096-.449.893-.673 1.931-.673 3.114 0 1.203.224 2.248.673 3.136a4.866 4.866 0 0 0 1.924 2.051Zm.095-6.34h5.407a2.916 2.916 0 0 0-.337-1.384 2.45 2.45 0 0 0-.921-.966c-.39-.234-.843-.352-1.362-.352-.554 0-1.04.135-1.46.404-.419.265-.746.614-.98 1.048-.205.383-.32.8-.347 1.25Zm-.005.165V17.293H69.5v-1.827h.464c-.003.055-.005.11-.005.165Z" fill="#273048"/><path d="M69.5 15.466v1.827h.46l-.001-.062v-1.6c0-.056.002-.11.005-.165H69.5Z" fill="#273048"/><path fill-rule="evenodd" clip-rule="evenodd" d="M98.927 12.899v-2.096h-2.38v-.906c0-.449.103-.793.307-1.032.21-.245.567-.367 1.07-.367.215 0 .41.02.584.06.175.035.32.07.434.104l.54-2.095a7.154 7.154 0 0 0-.809-.202 6.25 6.25 0 0 0-1.25-.113c-.664 0-1.267.128-1.811.382a3.03 3.03 0 0 0-1.303 1.153c-.32.514-.479 1.157-.479 1.93v1.086h-1.699V12.9h1.7V22.3h2.716v-9.401h2.38Zm-2.38 0v-2.096H93.83V12.9h2.717Z" fill="#155EEF"/><path d="M96.547 12.899v-2.096H93.83V12.9h2.717Z" fill="#155EEF"/><path fill-rule="evenodd" clip-rule="evenodd" d="M106.79 12.899v-2.096h-2.268V8.05h-2.709v2.754h-1.632V12.9h1.632v6.392c-.005.719.15 1.317.464 1.796a2.85 2.85 0 0 0 1.295 1.063c.544.225 1.155.327 1.834.307.384-.01.708-.045.973-.105.269-.06.476-.114.621-.164l-.457-2.118c-.074.02-.184.042-.329.067-.14.025-.294.037-.464.037-.225 0-.429-.035-.614-.104a.892.892 0 0 1-.449-.39c-.11-.194-.165-.474-.165-.838v-5.943h2.268Zm-2.268 0v-2.096h-2.709V12.9h2.709Z" fill="#155EEF"/><path d="M104.522 12.899v-2.096h-2.709V12.9h2.709Z" fill="#155EEF"/></svg>